<?xml version="1.0" standalone="no"?>
<!DOCTYPE svg PUBLIC "-//W3C//DTD SVG 20010904//EN"
 "http://www.w3.org/TR/2001/REC-SVG-20010904/DTD/svg10.dtd">
<svg version="1.0" xmlns="http://www.w3.org/2000/svg"
 width="500.000000pt" height="500.000000pt" viewBox="0 0 500.000000 500.000000"
 preserveAspectRatio="xMidYMid meet">

<g transform="translate(0.000000,500.000000) scale(0.100000,-0.100000)"
fill="#000000" stroke="none">
<path d="M1740 4380 c-74 -16 -167 -38 -205 -48 -61 -17 -210 -43 -465 -82
-41 -6 -193 -15 -337 -20 -248 -7 -264 -9 -315 -33 -60 -27 -134 -96 -154
-144 -8 -18 -14 -63 -14 -101 0 -63 3 -74 38 -128 60 -92 185 -212 407 -389
48 -38 118 -95 155 -125 36 -30 97 -80 134 -110 64 -51 110 -102 313 -340 113
-132 275 -288 359 -344 86 -57 171 -85 284 -93 110 -7 219 18 565 132 223 74
312 93 457 100 143 7 205 -1 222 -27 15 -24 6 -28 -67 -31 -81 -4 -117 -30
-117 -84 0 -44 22 -43 39 3 7 20 22 39 36 44 25 10 91 -2 109 -20 6 -6 11 -50
11 -109 0 -77 -4 -103 -16 -117 -17 -19 -65 -141 -79 -202 -7 -27 -1 -50 31
-125 l39 -91 -6 -102 c-4 -55 -4 -122 0 -148 7 -46 10 -49 83 -97 l75 -49 -1
-259 -2 -260 37 -41 c21 -23 50 -48 65 -55 30 -16 49 -60 49 -113 0 -30 11
-45 93 -126 51 -50 105 -106 121 -124 16 -18 31 -31 34 -28 5 6 3 616 -3 763
-2 46 -3 83 -1 83 1 0 38 -13 82 -29 l79 -29 -1 -64 c-5 -386 -12 -606 -19
-623 -5 -11 35 24 88 78 l96 97 7 63 c8 78 20 97 93 146 32 22 61 50 65 63 3
13 11 73 16 133 10 105 12 112 50 165 128 177 150 210 150 227 0 10 7 36 14
58 13 36 46 187 60 276 4 20 16 45 27 55 33 30 52 74 45 107 -6 28 -5 29 27
24 88 -13 175 84 198 224 11 67 6 219 -9 260 -5 13 -6 31 -2 39 4 8 15 31 25
52 20 41 14 58 -19 58 -13 0 -57 16 -99 35 -42 20 -91 38 -109 42 -30 6 -32 5
-20 -10 8 -9 37 -24 65 -33 l52 -18 -42 -7 c-23 -4 -50 -12 -61 -18 -16 -8
-20 -4 -31 37 -49 186 -236 525 -379 691 -26 29 -62 72 -80 95 -56 69 -214
227 -269 268 -53 39 -246 138 -269 138 -7 0 -86 28 -176 61 -190 72 -360 126
-508 164 -58 14 -163 46 -235 70 -71 23 -179 57 -240 75 -60 17 -141 42 -180
55 -159 53 -271 56 -465 15z m420 -24 c85 -21 324 -93 435 -131 114 -39 227
-72 366 -108 52 -14 167 -51 255 -83 87 -31 202 -72 254 -91 219 -78 313 -138
478 -306 181 -184 219 -229 326 -397 127 -198 257 -473 256 -544 0 -12 -13
-36 -29 -55 l-29 -35 -16 30 c-20 38 -49 69 -113 122 -32 26 -56 56 -63 77 -9
27 -17 35 -35 35 -43 0 -75 -22 -94 -64 -17 -38 -41 -69 -133 -169 -21 -23
-41 -56 -44 -74 -6 -31 -8 -33 -38 -28 -96 18 -168 3 -242 -51 -30 -22 -125
-43 -182 -41 -12 1 -38 15 -57 33 -19 17 -36 29 -39 27 -2 -3 -34 12 -71 32
-65 37 -65 37 -59 72 5 28 2 39 -19 61 l-26 27 13 90 c7 50 24 119 39 155 39
97 87 284 87 339 0 27 -7 68 -15 92 -9 24 -19 70 -22 103 -5 49 -12 66 -44
103 -22 24 -41 56 -45 71 -12 60 -34 91 -89 126 -30 20 -60 36 -66 36 -6 0
-65 27 -132 60 -67 33 -128 60 -136 60 -7 0 -30 9 -50 19 -61 32 -274 129
-313 142 -21 7 -40 20 -43 30 -6 19 -135 66 -317 114 -167 45 -234 51 -334 32
-43 -9 -117 -21 -164 -26 -47 -6 -116 -15 -155 -21 -38 -6 -101 -15 -139 -20
-38 -5 -153 -23 -255 -39 -102 -17 -233 -32 -291 -35 -140 -6 -305 -40 -347
-72 -17 -13 -35 -34 -39 -46 -3 -13 -13 -31 -22 -40 -10 -12 -12 -22 -5 -30 6
-7 13 -26 17 -42 12 -48 88 -146 114 -146 8 0 40 -20 70 -45 30 -25 58 -45 63
-45 5 0 7 21 4 46 -7 52 10 88 47 100 13 4 29 16 37 26 18 26 31 8 31 -42 0
-39 -41 -148 -61 -160 -9 -6 -4 -16 20 -36 18 -15 62 -55 97 -90 71 -69 252
-209 260 -201 3 3 -4 23 -15 45 -18 35 -18 42 -6 58 8 11 15 31 15 46 0 15 7
34 16 42 8 9 19 39 23 67 5 28 16 58 25 67 15 15 18 15 36 -4 15 -14 28 -57
46 -152 l26 -132 -22 -42 c-12 -23 -29 -48 -38 -55 -15 -12 -14 -15 15 -40 17
-16 50 -40 72 -55 22 -15 49 -45 61 -67 11 -22 41 -57 67 -78 26 -21 66 -57
88 -80 25 -26 79 -62 142 -94 86 -43 114 -52 171 -57 79 -5 215 25 284 63 24
13 72 29 108 35 84 15 110 22 255 60 66 17 140 33 165 35 152 12 184 15 188
19 8 9 -10 26 -27 26 -31 0 -42 26 -46 102 -2 40 -6 84 -9 98 -14 52 116 213
158 197 20 -8 29 -73 15 -114 -7 -23 -9 -62 -5 -110 7 -75 -7 -174 -27 -201
-12 -15 -13 -14 38 -41 22 -12 63 -35 90 -51 28 -16 58 -30 67 -30 9 0 48 -16
87 -36 69 -35 92 -64 51 -64 -11 0 -20 -7 -20 -15 0 -17 -32 -20 -59 -5 -10 5
-33 12 -52 15 -19 3 -64 13 -102 21 -50 12 -110 15 -240 12 l-172 -3 -80 -43
c-44 -23 -87 -42 -96 -42 -20 0 -106 -47 -116 -63 -18 -28 -196 -114 -259
-126 -93 -18 -254 36 -391 131 -52 35 -234 213 -248 242 -6 12 -19 25 -30 30
-11 5 -47 42 -80 84 -79 98 -182 202 -280 282 -44 35 -123 99 -175 141 -52 43
-128 112 -169 153 -48 49 -82 76 -96 76 -29 0 -160 137 -185 194 -11 22 -23
40 -27 38 -17 -7 -25 67 -13 125 10 49 19 65 59 102 25 23 58 49 73 57 39 20
147 34 278 34 183 1 254 9 720 80 41 6 109 21 150 32 211 58 279 68 415 63 72
-3 155 -12 185 -19z m-602 -278 c2 -15 -2 -37 -8 -49 -10 -17 -8 -28 6 -54
l17 -33 -37 -56 c-38 -58 -57 -66 -90 -41 -18 13 -20 26 -18 106 2 100 9 121
50 143 43 23 76 16 80 -16z m1001 -180 c32 -91 19 -193 -24 -193 -16 0 -23 13
-37 70 -22 95 -23 151 -1 164 25 13 49 -3 62 -41z m-478 -105 c10 -19 9 -38
-4 -101 -18 -80 -36 -105 -72 -100 -16 2 -20 11 -21 43 -2 72 14 159 31 172
25 17 52 12 66 -14z m837 -45 c19 -19 15 -137 -6 -178 -21 -42 -55 -52 -72
-19 -16 29 -9 171 9 192 16 20 52 22 69 5z m-1394 -230 c3 -13 9 -68 12 -123
6 -101 21 -195 46 -294 21 -83 0 -164 -44 -169 -49 -6 -128 122 -136 218 -10
133 -8 154 14 164 17 8 23 22 28 65 19 160 19 161 50 161 16 0 26 -7 30 -22z
m551 -88 c-6 -9 7 -14 27 -11 4 0 5 -5 2 -12 -2 -7 7 -26 20 -40 22 -23 25
-34 20 -70 -7 -46 -13 -130 -13 -162 2 -90 0 -97 -46 -170 -53 -86 -83 -110
-120 -101 -33 8 -53 49 -36 70 10 11 10 24 2 48 -6 20 -7 64 -3 114 7 71 11
85 42 124 31 39 35 51 35 102 0 53 3 60 35 87 38 33 45 37 35 21z m495 -103
c0 -49 -22 -144 -45 -192 -13 -27 -28 -63 -34 -78 -13 -32 -36 -44 -55 -28
-10 9 -13 38 -11 125 4 138 22 185 70 180 16 -2 36 1 44 6 25 15 31 12 31 -13z
m555 -302 c0 -44 -4 -60 -17 -69 -14 -8 -21 -7 -34 5 -13 14 -14 23 -4 60 24
89 55 91 55 4z m1578 -350 c55 -48 92 -207 76 -323 -13 -92 -36 -156 -73 -198
-30 -35 -37 -38 -89 -38 -48 -1 -60 3 -86 28 -62 59 -83 168 -60 316 28 186
144 293 232 215z m-318 -52 c51 -26 73 -51 68 -81 -2 -15 -6 -56 -10 -92 -7
-82 -15 -99 -46 -93 -27 5 -93 -15 -155 -47 -64 -33 -91 -25 -124 38 -15 29
-37 66 -49 83 l-21 30 23 45 c27 51 72 94 98 94 10 0 29 8 42 19 13 10 33 21
44 23 30 7 96 -3 130 -19z m-415 -134 c42 -24 108 -110 133 -175 31 -83 23
-271 -15 -349 -54 -108 -114 -149 -218 -148 -78 0 -130 23 -200 89 -74 69 -94
125 -94 265 -1 110 0 118 30 174 75 145 244 211 364 144z m-552 -107 c26 -18
58 -41 70 -52 13 -11 32 -20 43 -20 17 0 18 -7 14 -95 -3 -59 -10 -103 -19
-117 -8 -13 -18 -35 -21 -50 -5 -20 -13 -28 -29 -28 -18 1 -19 2 -5 13 48 37
49 107 1 107 -36 0 -52 -17 -52 -52 0 -15 -3 -28 -7 -28 -5 0 -24 30 -43 67
-19 37 -40 72 -47 78 -12 10 -33 58 -33 76 0 6 9 8 19 4 21 -6 51 18 51 40 0
17 -27 45 -44 45 -6 0 -17 -5 -24 -12 -9 -9 -12 3 -12 56 l0 67 45 -33 c25
-18 66 -48 93 -66z m1005 -118 c11 -24 26 -44 32 -44 5 0 16 -15 23 -32 7 -18
17 -40 21 -48 14 -25 -54 -110 -133 -165 -86 -60 -146 -89 -215 -104 -94 -20
-93 -21 -55 67 18 43 39 113 46 156 12 76 14 80 66 130 60 57 72 65 121 82 49
17 70 7 94 -42z m-1218 -11 c-15 -35 -14 -165 1 -188 13 -20 64 -54 232 -156
41 -24 102 -61 135 -82 34 -20 172 -94 307 -164 135 -69 262 -137 283 -150 21
-13 42 -21 46 -18 12 7 129 155 154 196 36 55 2 23 -69 -66 -37 -47 -69 -85
-70 -85 -3 0 22 56 95 213 61 132 69 150 76 175 4 13 28 48 53 76 26 29 52 61
59 72 10 16 13 17 23 4 28 -41 23 -59 -32 -119 -31 -33 -58 -69 -61 -81 -5
-21 -5 -21 14 -4 10 9 19 15 19 13 0 -2 -7 -39 -15 -82 -26 -136 -56 -240 -76
-265 -15 -20 -17 -27 -7 -34 12 -7 4 -12 -14 -9 -5 0 -7 -3 -5 -7 1 -5 -37
-56 -85 -114 -48 -58 -97 -121 -108 -141 -12 -21 -23 -37 -25 -37 -8 0 -216
80 -241 93 -16 8 -108 45 -204 82 -96 37 -204 78 -240 92 -90 36 -236 119
-255 146 -16 23 -21 135 -9 196 6 31 7 31 31 15 35 -23 41 -9 10 24 -15 16
-27 33 -27 39 0 7 -20 54 -46 106 l-45 95 43 91 c23 50 47 91 51 91 5 0 6 -8
2 -17z m1035 -583 c-24 -15 -36 -11 -14 4 10 8 21 12 24 10 2 -3 -2 -9 -10
-14z m-63 -45 c-19 -18 -40 -20 -34 -2 2 6 9 12 15 12 5 0 14 3 18 8 4 4 9 5
12 2 2 -2 -3 -11 -11 -20z m-762 -169 c62 -24 60 -23 45 -40 -8 -10 -10 -29
-5 -58 13 -75 12 -458 -1 -458 -6 0 -34 21 -61 48 l-50 47 2 215 c4 276 4 272
13 268 4 -1 30 -12 57 -22z m192 -81 c17 -8 37 -15 45 -15 37 0 41 -33 46
-435 l5 -390 -88 92 c-48 51 -93 93 -101 93 -12 0 -15 17 -15 83 0 45 -3 202
-6 349 l-5 266 43 -14 c24 -8 58 -21 76 -29z m396 -145 c27 0 39 -6 48 -21 7
-14 7 -19 1 -15 -15 9 -20 -33 -27 -234 l-6 -175 -57 -60 c-31 -33 -60 -61
-64 -63 -10 -4 -10 286 -1 471 l6 137 32 -20 c18 -11 49 -20 68 -20z m188 -70
c-6 -28 -11 -66 -11 -84 0 -30 -6 -38 -48 -65 -27 -17 -52 -31 -55 -31 -9 0
-9 88 -1 157 l7 53 36 -6 c31 -5 39 -2 56 21 24 34 30 19 16 -45z"/>
<path d="M3445 2710 c-8 -16 -15 -40 -15 -54 0 -25 23 -56 41 -56 11 0 59 49
59 61 0 4 3 14 6 22 7 19 -30 57 -56 57 -11 0 -26 -12 -35 -30z"/>
<path d="M3595 2553 c-20 -19 -16 -62 7 -77 27 -17 52 13 43 52 -8 36 -29 47
-50 25z"/>
<path d="M4541 2524 c-25 -32 -45 -90 -37 -110 5 -13 11 -11 38 11 21 18 39
25 55 22 20 -4 23 0 23 30 0 71 -41 96 -79 47z"/>
<path d="M3853 2390 c-29 -12 -73 -89 -73 -128 0 -38 18 -51 37 -26 51 70 56
74 92 74 25 -1 47 -10 71 -30 41 -35 50 -37 50 -10 0 31 -25 74 -60 104 -33
27 -75 33 -117 16z"/>
<path d="M3753 1943 c-21 -8 -15 -51 7 -58 27 -8 40 1 40 30 0 17 -21 40 -33
34 -1 0 -8 -3 -14 -6z"/>
<path d="M3806 1531 c31 -28 324 -79 370 -64 25 8 17 11 -56 16 -47 4 -134 18
-195 32 -121 28 -134 29 -119 16z"/>
</g>
</svg>
